<?xml version="1.0" encoding="utf-8"?>
<!-- Generator: Adobe Illustrator 25.1.0, SVG Export Plug-In . SVG Version: 6.00 Build 0)  -->
<svg version="1.1" id="Layer_1" xmlns="http://www.w3.org/2000/svg" xmlns:xlink="http://www.w3.org/1999/xlink" x="0px" y="0px"
	 viewBox="0 0 117.9 44.7" style="enable-background:new 0 0 117.9 44.7;" xml:space="preserve">
<style type="text/css">
	.st0{fill:#BDD9EA;}
	.st1{fill:#0E3C60;}
</style>
<path class="st0" d="M44.7,22.3c0-6.1,3.7-11.5,9.4-13.6C50,3.5,43.8,0.6,37.2,0.6H22.9c-12-0.3-22,9.3-22.2,21.3s9.3,22,21.3,22.2
	c0.3,0,0.6,0,0.9,0h14.3c6.6,0,12.9-3,17-8.1C48.5,33.8,44.7,28.4,44.7,22.3z"/>
<path class="st0" d="M95,0.6H80.7c-6.5,0-12.7,2.9-16.8,7.9c7.6,2.5,11.8,10.8,9.2,18.4c-1.5,4.4-4.9,7.8-9.2,9.2
	c4.1,5,10.3,7.9,16.8,7.9H95c12,0.3,22-9.3,22.2-21.3S108,0.8,96,0.6C95.7,0.5,95.4,0.5,95,0.6L95,0.6z"/>
<path class="st1" d="M25.8,12.6c1.2,0,2.2-1,2.2-2.2s-1-2.2-2.2-2.2c-1.2,0-2.2,1-2.2,2.2C23.6,11.6,24.6,12.6,25.8,12.6z"/>
<path class="st1" d="M31.7,27.3c-0.5,0.1-0.8,0.5-0.9,1l0,0c-0.7,2-2.3,3.5-4.3,4.1c-0.9,0.3-1.8,0.3-2.6,0.2l0,0
	c-1.3-0.2-2.5-0.8-3.5-1.7l-0.1-0.1c-0.1-0.1-0.2-0.2-0.3-0.3l-0.2-0.3l-0.1-0.1c-0.5-0.7-0.9-1.4-1.2-2.2l0,0
	C18.3,27,18.2,26,18.3,25c0.3-2.1,1.5-3.9,3.4-4.9l0,0c0.7-0.3,1-1,0.8-1.7c-0.2-0.4-0.6-0.7-1-0.8c-0.3,0-0.5,0-0.8,0.1l0,0
	c-2.7,1.4-4.6,4-5,7.1c-0.2,1.4-0.1,2.8,0.3,4.2l0,0c1.4,4.7,6.4,7.5,11.2,6.1c2.9-0.9,5.1-3.2,6-6.1l0,0c0.1-0.3,0.1-0.5,0-0.8
	C33,27.5,32.3,27.2,31.7,27.3z"/>
<path class="st1" d="M42.2,29.1c-0.3-0.5-0.9-0.6-1.3-0.4l-1.5,0.8l-3.7-5.6c-0.2-0.4-0.7-0.7-1.1-0.7h-7V21h4.9
	c0.8-0.1,1.3-0.8,1.2-1.6c-0.1-0.6-0.6-1.2-1.2-1.2h-4.9v-2.9c0-0.9-0.7-1.6-1.6-1.6c-0.9,0-1.6,0.7-1.6,1.6v9.2
	c0,0.8,0.6,1.5,1.4,1.6h8.5l3.5,5.3c0.2,0.3,0.4,0.4,0.7,0.5c0.1,0,0.1,0,0.2,0l0,0c0.1,0,0.3,0,0.4-0.1h0.1c0,0,0,0,0.1,0l2.5-1.4
	C42.2,30.2,42.4,29.6,42.2,29.1z"/>
<path class="st1" d="M65.2,19.6l-11.6-6c0,2.5,0.3,4.1,2,5l5.8,3L65.2,19.6z"/>
<path class="st1" d="M66.8,20.3l-3.8,2l0,0l-7.3,3.8c-1.7,0.9-2,2.9-2,5l10.5-5.5C66.5,24.4,66.8,22.8,66.8,20.3L66.8,20.3z"/>
<path class="st1" d="M100.6,35.4c0,0.1-0.1,0.2-0.2,0.2H80.1c-0.1,0-0.2-0.1-0.2-0.2V28c0-0.1,0.1-0.2,0.2-0.2h20.2
	c0.1,0,0.2,0.1,0.2,0.2V35.4 M87.5,31.3h2c0.1,0,0.2-0.1,0.2-0.2c0,0,0,0,0,0v-2c0-0.1-0.1-0.2-0.2-0.2c0,0,0,0,0,0h-2
	c-0.1,0-0.2,0.1-0.2,0.2c0,0,0,0,0,0v2C87.3,31.2,87.3,31.3,87.5,31.3C87.5,31.3,87.5,31.3,87.5,31.3 M83.7,32h-2
	c-0.1,0-0.2,0.1-0.2,0.2c0,0,0,0,0,0v2c0,0.1,0.1,0.2,0.2,0.2l0,0h2c0.1,0,0.2-0.1,0.2-0.2c0,0,0,0,0,0v-2
	C83.9,32.1,83.8,32,83.7,32L83.7,32 M83.7,31.3h2c0.1,0,0.2-0.1,0.2-0.2c0,0,0,0,0,0v-2c0-0.1-0.1-0.2-0.2-0.2c0,0,0,0,0,0h-2
	c-0.1,0-0.2,0.1-0.2,0.2c0,0,0,0,0,0v2C83.5,31.2,83.6,31.3,83.7,31.3C83.7,31.3,83.7,31.3,83.7,31.3 M91.2,31.3h2
	c0.1,0,0.2-0.1,0.2-0.2v-2c0-0.1-0.1-0.2-0.2-0.2h-2c-0.1,0-0.2,0.1-0.2,0.2v2C91,31.2,91.1,31.3,91.2,31.3 M95,31.3h2
	c0.1,0,0.2-0.1,0.2-0.2v-2c0-0.1-0.1-0.2-0.2-0.2h-2c-0.1,0-0.2,0.1-0.2,0.2v2C94.8,31.2,94.9,31.3,95,31.3 M95,32h-2
	c-0.1,0-0.2,0.1-0.2,0.2c0,0,0,0,0,0v2c0,0.1,0.1,0.2,0.2,0.2c0,0,0,0,0,0h2c0.1,0,0.2-0.1,0.2-0.2c0,0,0,0,0,0v-2
	C95.2,32.1,95.1,32,95,32C95,32,95,32,95,32 M87.5,32h-2c-0.1,0-0.2,0.1-0.2,0.2c0,0,0,0,0,0v2c0,0.1,0.1,0.2,0.2,0.2c0,0,0,0,0,0h2
	c0.1,0,0.2-0.1,0.2-0.2c0,0,0,0,0,0v-2C87.7,32.1,87.6,32,87.5,32L87.5,32 M98.8,32h-2c-0.1,0-0.2,0.1-0.2,0.2v2
	c0,0.1,0.1,0.2,0.2,0.2h2c0.1,0,0.2-0.1,0.2-0.2c0,0,0,0,0,0v-2C99,32.1,98.9,32,98.8,32L98.8,32 M91.2,32h-2
	c-0.1,0-0.2,0.1-0.2,0.2c0,0,0,0,0,0v2c0,0.1,0.1,0.2,0.2,0.2l0,0h2c0.1,0,0.2-0.1,0.2-0.2c0,0,0,0,0,0v-2
	C91.5,32.1,91.4,32,91.2,32C91.2,32,91.2,32,91.2,32 M80.4,26.5c0,0.1,0.1,0.2,0.2,0.2c0,0,0,0,0,0h19.4c0.1,0,0.2-0.1,0.2-0.2
	c0,0,0,0,0,0V8.3c0-0.1-0.1-0.2-0.2-0.2c0,0,0,0,0,0H80.5c-0.1,0-0.2,0.1-0.2,0.2c0,0,0,0,0,0L80.4,26.5z M83,23.3V11
	c0-0.1,0.1-0.2,0.2-0.2c0,0,0,0,0,0h14.3c0.1,0,0.2,0.1,0.2,0.2c0,0,0,0,0,0v12.3c0,0.1-0.1,0.2-0.1,0.2c0,0,0,0,0,0H83.2
	C83.1,23.4,83,23.4,83,23.3C83,23.3,83,23.3,83,23.3"/>
<path class="st1" d="M112.7,43.7v-2H112v-0.4h1.9v0.4h-0.7v2L112.7,43.7z"/>
<path class="st1" d="M114.2,43.7v-2.4h0.7l0.4,1.7l0.4-1.7h0.8v2.4h-0.4v-1.9l-0.5,1.9h-0.5l-0.5-1.9v1.9L114.2,43.7z"/>
</svg>
