<svg xmlns="http://www.w3.org/2000/svg" viewBox="0 0 192.17 72.11"><defs><style>.cls-1{fill:#009d96;}</style></defs><title>Asset 1</title><g id="Layer_2" data-name="Layer 2"><g id="Layer_1-2" data-name="Layer 1"><path class="cls-1" d="M54.08,18A18,18,0,1,0,18,18Z"/><path class="cls-1" d="M54.08,54.08a18,18,0,1,1-36.05,0Z"/><path class="cls-1" d="M34.34,36.13A18,18,0,0,0,18,54.08,18,18,0,1,1,18,18,18,18,0,0,0,34.34,36Z"/><path class="cls-1" d="M37.77,36.13A18,18,0,0,1,54.08,54.08a18,18,0,1,0,0-36.05A18,18,0,0,1,37.77,36Z"/><path class="cls-1" d="M157.35,28.7c0-7.12-5.47-11.27-12-11.27s-13.57,3.8-13.57,11.18c0,6.4,7,9.7,11.07,10.73,2.21.58,7.78,1.21,7.78,5.19,0,3.79-3.9,4.82-6.81,4.82-3.76,0-6-2.63-5.64-6.61h-7.39c-.26,9,5.84,12.31,13,12.48,8.23.19,14.52-3.33,14.52-11.26s-7.13-9.23-12.7-11c-2.16-.7-6.16-1.33-6.16-5,0-3.08,2.66-4.56,5.38-4.56,3.5,0,5.31,1.73,5.57,5.33h7"/><polygon class="cls-1" points="109.01 54.42 120.13 28.5 120.13 54.03 127.88 54.03 127.88 18.05 116.38 18.05 109 36.49 101.63 18.05 90.13 18.05 90.13 54.03 97.88 54.03 97.88 28.5 109 54.42 109.01 54.42"/><polygon class="cls-1" points="109.01 54.42 120.13 28.5 120.13 54.03 127.88 54.03 127.88 18.05 116.38 18.05 109 36.49 101.63 18.05 90.13 18.05 90.13 54.03 97.88 54.03 97.88 28.5 109 54.42 109.01 54.42"/><path class="cls-1" d="M161.44,18V54h7.79V24.63h3.18c8.76,0,11.92,5.71,11.92,11.43s-3.16,11.43-11.92,11.43h-3.18V54h3.7c9.55,0,19.25-5.52,19.25-18s-9.69-18-19.25-18H161.44"/></g></g></svg>